<svg width="14" height="13" viewBox="0 0 14 13" fill="none" xmlns="http://www.w3.org/2000/svg">
<path d="M1.43148 4.30057C1.59557 4.14825 1.81809 4.06268 2.05011 4.06268C2.28212 4.06268 2.50464 4.14825 2.66873 4.30057L6.99998 8.32244L11.3312 4.30057C11.4963 4.15257 11.7173 4.07067 11.9467 4.07252C12.1761 4.07437 12.3956 4.15982 12.5578 4.31047C12.7201 4.46111 12.8121 4.6649 12.8141 4.87793C12.8161 5.09097 12.7279 5.2962 12.5685 5.44944L7.61861 10.0458C7.45452 10.1981 7.232 10.2836 6.99998 10.2836C6.76796 10.2836 6.54544 10.1981 6.38136 10.0458L1.43148 5.44944C1.26744 5.29708 1.17529 5.09045 1.17529 4.87501C1.17529 4.65956 1.26744 4.45294 1.43148 4.30057V4.30057Z" fill="#A6A6A6"/>
</svg>
