<svg width="1440" height="1024" viewBox="0 0 1440 1024" fill="none" xmlns="http://www.w3.org/2000/svg">
<g style="mix-blend-mode:multiply">
<path d="M-82.4997 936.44L0.940277 845.7C9.93028 835.92 9.93028 820.07 0.940277 810.3C-8.04972 800.52 -22.6197 800.52 -31.6097 810.3L-115.04 901.04C-124.03 910.82 -124.03 926.67 -115.04 936.44C-106.05 946.22 -91.4797 946.22 -82.4897 936.44H-82.4997Z" fill="#E8E8E8"/>
<path d="M941.38 1256.84L1207.22 967.739C1216.18 957.989 1216.86 942.009 1208.06 932.089C1199.1 921.979 1184.3 921.869 1175.21 931.759L1154.67 954.099C1150.18 958.989 1142.89 958.989 1138.39 954.099C1133.9 949.209 1133.9 941.289 1138.39 936.399L1232.19 834.389C1241.18 824.609 1241.18 808.759 1232.19 798.989C1223.2 789.209 1208.63 789.209 1199.64 798.989L951.24 1069.13C942.25 1078.91 942.25 1094.76 951.24 1104.53C960.23 1114.31 974.8 1114.31 983.79 1104.53L1010.78 1075.18C1015.27 1070.29 1022.56 1070.29 1027.06 1075.18C1031.55 1080.07 1031.55 1087.99 1027.06 1092.88L909.38 1220.86C900.42 1230.61 899.74 1246.59 908.54 1256.51C917.5 1266.62 932.3 1266.73 941.39 1256.84H941.38Z" fill="#E8E8E8"/>
<path d="M1208.45 143.359L1428.67 -96.1406C1437.63 -105.891 1438.31 -121.871 1429.51 -131.791C1420.55 -141.901 1405.75 -142.011 1396.66 -132.121L1376.12 -109.781C1371.63 -104.891 1364.34 -104.891 1359.84 -109.781C1355.35 -114.671 1355.35 -122.591 1359.84 -127.481L1453.64 -229.491C1462.63 -239.271 1462.63 -255.121 1453.64 -264.891C1444.65 -274.671 1430.08 -274.671 1421.09 -264.891L1172.68 5.24942C1163.69 15.0294 1163.69 30.8795 1172.68 40.6494C1181.67 50.4294 1196.24 50.4294 1205.23 40.6494L1232.22 11.2994C1236.71 6.40942 1244 6.40942 1248.5 11.2994C1252.99 16.1895 1252.99 24.1094 1248.5 28.9994L1176.44 107.369C1167.48 117.119 1166.8 133.099 1175.6 143.019C1184.56 153.129 1199.36 153.239 1208.45 143.349V143.359Z" fill="#E8E8E8"/>
<path d="M422.95 250.35L504.32 161.86C508.81 156.97 516.1 156.97 520.6 161.86C525.09 166.75 525.09 174.669 520.6 179.56L504.93 196.6C495.97 206.35 495.29 222.33 504.09 232.25C513.05 242.359 527.85 242.47 536.94 232.58L671.79 85.9295C676.04 81.3095 682.94 80.5595 687.58 84.7195C692.9 89.4995 693.18 98.0695 688.42 103.25L670.94 122.26C661.98 132.01 661.3 147.99 670.1 157.91C679.06 168.02 693.86 168.13 702.95 158.24L844.94 3.82953C853.9 -5.92047 854.58 -21.9005 845.78 -31.8205C836.82 -41.9305 822.02 -42.0405 812.93 -32.1505L733.19 54.5695C728.94 59.1895 722.04 59.9395 717.4 55.7795C712.08 50.9995 711.8 42.4295 716.56 37.2495L796.11 -49.2705C805.07 -59.0205 805.75 -75.0005 796.95 -84.9205C787.99 -95.0305 773.19 -95.1405 764.1 -85.2505L708.04 -24.2805C703.55 -19.3904 696.26 -19.3904 691.76 -24.2805C687.27 -29.1705 687.27 -37.0905 691.76 -41.9805L937.25 -308.96C946.21 -318.71 946.89 -334.69 938.09 -344.61C929.13 -354.72 914.33 -354.83 905.24 -344.94L590.74 -2.93048C581.78 6.81952 581.1 22.7995 589.9 32.7195C598.86 42.8295 613.66 42.9395 622.75 33.0495L633.9 20.9295C638.39 16.0395 645.68 16.0395 650.18 20.9295C654.67 25.8195 654.67 33.7395 650.18 38.6295L572.48 123.13C567.99 128.02 560.7 128.02 556.2 123.13C551.71 118.24 551.71 110.32 556.2 105.43L564.25 96.6695C573.21 86.9195 573.89 70.9395 565.09 61.0195C556.13 50.9095 541.33 50.7995 532.24 60.6895L389.86 215.53C380.77 225.42 380.87 241.51 390.17 251.26C399.29 260.83 413.99 260.09 422.95 250.34V250.35Z" fill="#E8E8E8"/>
<path d="M1430.02 879.479C1439.01 869.699 1439.01 853.849 1430.02 844.079C1421.03 834.299 1406.46 834.299 1397.47 844.079C1388.48 853.859 1388.48 869.709 1397.47 879.479C1406.46 889.259 1421.03 889.259 1430.02 879.479Z" fill="#E8E8E8"/>
<path d="M500.321 -158.341L353.441 1.39922C344.451 11.1792 344.451 27.0292 353.441 36.7992C362.431 46.5792 377.001 46.5792 385.991 36.7992L532.881 -122.941C541.871 -132.721 541.871 -148.571 532.881 -158.341C523.891 -168.121 509.321 -168.121 500.331 -158.341H500.321Z" fill="#E8E8E8"/>
<path d="M1008.58 39.2491L956.77 95.5991C947.78 105.379 947.78 121.229 956.77 130.999C965.76 140.779 980.33 140.779 989.32 130.999L1041.13 74.6491C1050.12 64.8691 1050.12 49.0191 1041.13 39.2491C1032.14 29.4691 1017.57 29.4691 1008.58 39.2491Z" fill="#E8E8E8"/>
<path d="M695.031 899.539C686.041 909.319 686.041 925.169 695.031 934.939C704.021 944.719 718.591 944.719 727.581 934.939C736.571 925.159 736.571 909.309 727.581 899.539C718.591 889.759 704.021 889.759 695.031 899.539Z" fill="#E8E8E8"/>
<path d="M1385.98 467.3L1239.09 627.04C1230.1 636.82 1230.1 652.67 1239.09 662.44C1248.08 672.22 1262.65 672.22 1271.64 662.44L1418.53 502.7C1427.52 492.92 1427.52 477.07 1418.53 467.3C1409.54 457.52 1394.97 457.52 1385.98 467.3Z" fill="#E8E8E8"/>
<path d="M45.3799 577.509L-331.05 953.939C-354.09 976.979 -354.09 1014.33 -331.05 1037.36C-308.01 1060.4 -270.66 1060.4 -247.63 1037.36L128.8 660.929C151.84 637.889 151.84 600.539 128.8 577.509C105.76 554.469 68.4099 554.469 45.3799 577.509V577.509Z" stroke="white" stroke-miterlimit="10"/>
<path d="M1207.29 890.67L830.86 1267.1C807.82 1290.14 807.82 1327.49 830.86 1350.52C853.9 1373.56 891.25 1373.56 914.28 1350.52L1290.71 974.09C1313.75 951.05 1313.75 913.7 1290.71 890.67C1267.67 867.63 1230.32 867.63 1207.29 890.67V890.67Z" stroke="white" stroke-miterlimit="10"/>
<path d="M429.71 -173.35L191.27 65.0895C176.68 79.6795 176.68 103.34 191.27 117.93C205.86 132.52 229.52 132.52 244.11 117.93L482.56 -120.51C497.15 -135.1 497.15 -158.76 482.56 -173.35C467.97 -187.94 444.31 -187.94 429.72 -173.35H429.71Z" stroke="white" stroke-miterlimit="10"/>
<path d="M440.51 932.21L202.06 1170.66C187.47 1185.25 187.47 1208.91 202.06 1223.5C216.65 1238.09 240.31 1238.09 254.9 1223.5L493.35 985.05C507.94 970.46 507.94 946.8 493.35 932.21C478.76 917.62 455.1 917.62 440.51 932.21V932.21Z" stroke="white" stroke-miterlimit="10"/>
<path d="M318.11 204.23L412.32 101.78C421.31 91.9999 421.31 76.1499 412.32 66.3799C403.33 56.5999 388.76 56.5999 379.77 66.3799L285.56 168.83C276.57 178.61 276.57 194.46 285.56 204.23C294.55 214.01 309.12 214.01 318.11 204.23Z" fill="#233E71"/>
<path d="M-106.12 819.09L159.72 529.98C168.68 520.23 169.36 504.25 160.56 494.33C151.6 484.22 136.8 484.11 127.71 494L107.17 516.34C102.68 521.23 95.3895 521.23 90.8895 516.34C86.3995 511.45 86.3995 503.53 90.8895 498.64L184.69 396.63C193.68 386.85 193.68 371 184.69 361.23C175.7 351.45 161.13 351.45 152.14 361.23L-96.2705 631.37C-105.26 641.15 -105.26 657 -96.2705 666.77C-87.2805 676.55 -72.7105 676.55 -63.7205 666.77L-36.7305 637.419C-32.2405 632.529 -24.9505 632.529 -20.4505 637.419C-15.9605 642.31 -15.9605 650.229 -20.4505 655.12L-138.13 783.099C-147.09 792.849 -147.77 808.829 -138.97 818.75C-130.01 828.859 -115.21 828.97 -106.12 819.08V819.09Z" fill="#233E71"/>
<path d="M617.73 1404.77L883.57 1115.67C892.53 1105.92 893.21 1089.94 884.41 1080.02C875.45 1069.91 860.65 1069.8 851.56 1079.69L831.02 1102.03C826.53 1106.92 819.24 1106.92 814.74 1102.03C810.25 1097.14 810.25 1089.22 814.74 1084.33L908.54 982.32C917.53 972.54 917.53 956.69 908.54 946.92C899.55 937.14 884.98 937.14 875.99 946.92L627.59 1217.06C618.6 1226.84 618.6 1242.69 627.59 1252.46C636.58 1262.24 651.15 1262.24 660.14 1252.46L687.13 1223.11C691.62 1218.22 698.91 1218.22 703.41 1223.11C707.9 1228 707.9 1235.92 703.41 1240.81L585.73 1368.79C576.77 1378.54 576.09 1394.52 584.89 1404.44C593.85 1414.55 608.65 1414.66 617.74 1404.77H617.73Z" stroke="#4C9FFF" stroke-width="2.83" stroke-miterlimit="10"/>
<path d="M244.23 1137.37L464.45 897.87C473.41 888.12 474.09 872.14 465.29 862.22C456.33 852.11 441.53 852 432.44 861.89L411.9 884.23C407.41 889.12 400.12 889.12 395.62 884.23C391.13 879.34 391.13 871.42 395.62 866.53L489.42 764.52C498.41 754.74 498.41 738.89 489.42 729.12C480.43 719.34 465.86 719.34 456.87 729.12L208.47 999.26C199.48 1009.04 199.48 1024.89 208.47 1034.66C217.46 1044.44 232.03 1044.44 241.02 1034.66L268.01 1005.31C272.5 1000.42 279.79 1000.42 284.29 1005.31C288.78 1010.2 288.78 1018.12 284.29 1023.01L212.23 1101.38C203.27 1111.13 202.59 1127.11 211.39 1137.03C220.35 1147.14 235.15 1147.25 244.24 1137.36L244.23 1137.37Z" fill="#233E71"/>
<path d="M1233.01 290.02L1409.26 98.3397C1413.75 93.4497 1421.04 93.4497 1425.54 98.3397C1430.03 103.23 1430.03 111.15 1425.54 116.04L1314.98 236.27C1306.02 246.02 1305.34 262 1314.14 271.92C1323.1 282.03 1337.9 282.14 1346.99 272.25L1414.28 199.07C1418.53 194.45 1425.43 193.7 1430.07 197.86C1435.39 202.64 1435.67 211.21 1430.91 216.39L1398.64 251.49C1389.68 261.24 1389 277.22 1397.8 287.14C1406.76 297.25 1421.56 297.36 1430.65 287.48L1768.3 -79.7203C1777.26 -89.4703 1777.94 -105.45 1769.14 -115.37C1760.18 -125.48 1745.38 -125.59 1736.29 -115.7L1656.55 -28.9803C1652.3 -24.3603 1645.4 -23.6103 1640.76 -27.7703C1635.44 -32.5503 1635.16 -41.1203 1639.92 -46.3003L1719.47 -132.82C1728.43 -142.57 1729.11 -158.55 1720.31 -168.47C1711.35 -178.58 1696.55 -178.69 1687.46 -168.8L1683.59 -164.59C1679.1 -159.7 1671.81 -159.7 1667.31 -164.59C1662.82 -169.48 1662.82 -177.4 1667.31 -182.29L1860.61 -392.51C1869.57 -402.26 1870.25 -418.24 1861.45 -428.16C1852.49 -438.27 1837.69 -438.38 1828.6 -428.49L1514.1 -86.4803C1505.14 -76.7303 1504.46 -60.7503 1513.26 -50.8303C1522.22 -40.7203 1537.02 -40.6103 1546.11 -50.5003L1557.26 -62.6203C1561.75 -67.5103 1569.04 -67.5103 1573.54 -62.6203C1578.03 -57.7303 1578.03 -49.8103 1573.54 -44.9203L1477.42 59.6097C1472.93 64.4997 1465.64 64.4997 1461.14 59.6097C1456.65 54.7197 1456.65 46.7997 1461.14 41.9097L1469.19 33.1497C1478.15 23.3997 1478.83 7.41973 1470.03 -2.50027C1461.07 -12.6103 1446.27 -12.7203 1437.18 -2.83026L1199.91 255.2C1190.82 265.09 1190.92 281.18 1200.22 290.93C1209.34 300.5 1224.04 299.76 1233 290.01L1233.01 290.02Z" stroke="#4C9FFF" stroke-width="2.83" stroke-miterlimit="10"/>
<path d="M1138.37 1333.89L1219.74 1245.4C1224.23 1240.51 1231.52 1240.51 1236.02 1245.4C1240.51 1250.29 1240.51 1258.21 1236.02 1263.1L1220.35 1280.14C1211.39 1289.89 1210.71 1305.87 1219.51 1315.79C1228.47 1325.9 1243.27 1326.01 1252.36 1316.12L1387.21 1169.47C1391.46 1164.85 1398.36 1164.1 1403 1168.26C1408.32 1173.04 1408.6 1181.61 1403.84 1186.79L1386.36 1205.8C1377.4 1215.55 1376.72 1231.53 1385.52 1241.45C1394.48 1251.56 1409.28 1251.67 1418.37 1241.78L1560.38 1087.34C1569.34 1077.59 1570.02 1061.61 1561.22 1051.69C1552.26 1041.58 1537.46 1041.47 1528.37 1051.36L1448.63 1138.08C1444.38 1142.7 1437.48 1143.45 1432.84 1139.29C1427.52 1134.51 1427.24 1125.94 1432 1120.76L1511.55 1034.24C1520.51 1024.49 1521.19 1008.51 1512.39 998.59C1503.43 988.48 1488.63 988.37 1479.54 998.26L1423.48 1059.23C1418.99 1064.12 1411.7 1064.12 1407.2 1059.23C1402.71 1054.34 1402.71 1046.42 1407.2 1041.53L1652.69 774.55C1661.65 764.8 1662.33 748.82 1653.53 738.9C1644.57 728.79 1629.77 728.68 1620.68 738.57L1306.18 1080.59C1297.22 1090.34 1296.54 1106.32 1305.34 1116.24C1314.3 1126.35 1329.1 1126.46 1338.19 1116.57L1349.34 1104.45C1353.83 1099.56 1361.12 1099.56 1365.62 1104.45C1370.11 1109.34 1370.11 1117.26 1365.62 1122.15L1287.92 1206.65C1283.43 1211.54 1276.14 1211.54 1271.64 1206.65C1267.15 1201.76 1267.15 1193.84 1271.64 1188.95L1279.69 1180.19C1288.65 1170.44 1289.33 1154.46 1280.53 1144.54C1271.57 1134.43 1256.77 1134.32 1247.68 1144.21L1105.3 1299.06C1096.21 1308.95 1096.31 1325.04 1105.61 1334.79C1114.73 1344.36 1129.43 1343.62 1138.39 1333.87L1138.37 1333.89Z" stroke="#4C9FFF" stroke-width="2.83" stroke-miterlimit="10"/>
<path d="M466.24 -282.16L212.22 -5.89981C207.73 -1.00981 200.44 -1.00981 195.94 -5.89981C191.45 -10.7898 191.45 -18.7098 195.94 -23.5998L248.51 -80.7798C257.47 -90.5298 258.15 -106.51 249.35 -116.43C240.39 -126.54 225.59 -126.65 216.5 -116.76L207.19 -106.64C202.94 -102.02 196.04 -101.27 191.4 -105.43C186.08 -110.21 185.8 -118.78 190.56 -123.96L270.11 -210.47C279.07 -220.22 279.75 -236.2 270.95 -246.12C261.99 -256.23 247.19 -256.34 238.1 -246.45L-146.82 172.15C-155.78 181.9 -156.46 197.88 -147.66 207.8C-138.7 217.91 -123.9 218.02 -114.81 208.13L-35.0701 121.42C-30.8201 116.8 -23.9201 116.05 -19.2801 120.21C-13.9601 124.99 -13.6801 133.56 -18.4401 138.74L-188.9 324.12C-197.86 333.87 -198.54 349.85 -189.74 359.77C-180.78 369.88 -165.98 369.99 -156.89 360.1L-153.02 355.89C-148.53 351 -141.24 351 -136.74 355.89C-132.25 360.78 -132.25 368.7 -136.74 373.59L-223.52 467.97C-232.48 477.72 -233.16 493.7 -224.36 503.62C-215.4 513.73 -200.6 513.84 -191.51 503.95L16.4599 277.79C25.4199 268.04 26.0999 252.06 17.2999 242.14C8.33988 232.03 -6.46012 231.92 -15.5501 241.81L-26.7001 253.93C-31.1901 258.82 -38.4801 258.82 -42.9801 253.93C-47.4701 249.04 -47.4701 241.12 -42.9801 236.23L144.06 32.8202C148.55 27.9302 155.84 27.9302 160.34 32.8202C164.83 37.7102 164.83 45.6302 160.34 50.5202L152.29 59.2802C143.33 69.0302 142.65 85.0102 151.45 94.9302C160.41 105.04 175.21 105.15 184.3 95.2602L499.33 -247.34C508.42 -257.23 508.32 -273.32 499.02 -283.07C489.9 -292.64 475.2 -291.9 466.24 -282.15V-282.16Z" stroke="#4C9FFF" stroke-width="2.83" stroke-miterlimit="10"/>
<path d="M1243.65 490.86C1252.64 481.08 1252.64 465.23 1243.65 455.46C1234.66 445.68 1220.09 445.68 1211.1 455.46C1202.11 465.24 1202.11 481.09 1211.1 490.86C1220.09 500.64 1234.66 500.64 1243.65 490.86Z" fill="#233E71"/>
<path d="M206.17 551.7L122.74 642.44C113.75 652.22 113.75 668.07 122.74 677.84C131.73 687.62 146.3 687.62 155.29 677.84L238.72 587.1C247.71 577.32 247.71 561.47 238.72 551.7C229.73 541.92 215.16 541.92 206.17 551.7V551.7Z" stroke="#4C9FFF" stroke-width="2.83" stroke-miterlimit="10"/>
<path d="M1071.51 -168.87L834.15 89.2699C825.16 99.0499 825.16 114.9 834.15 124.67C843.14 134.45 857.71 134.45 866.7 124.67L1104.06 -133.47C1113.05 -143.25 1113.05 -159.1 1104.06 -168.87C1095.07 -178.65 1080.5 -178.65 1071.51 -168.87Z" fill="#233E71"/>
<path d="M94.1394 133.989L42.3294 190.339C33.3394 200.119 33.3394 215.969 42.3294 225.739C51.3194 235.519 65.8894 235.519 74.8794 225.739L126.689 169.389C135.679 159.609 135.679 143.759 126.689 133.989C117.699 124.209 103.129 124.209 94.1394 133.989Z" stroke="#4C9FFF" stroke-width="2.83" stroke-miterlimit="10"/>
<path d="M233.19 132.17C224.2 141.95 224.2 157.8 233.19 167.57C242.18 177.35 256.75 177.35 265.74 167.57C274.73 157.79 274.73 141.94 265.74 132.17C256.75 122.39 242.18 122.39 233.19 132.17Z" stroke="#4C9FFF" stroke-width="2.83" stroke-miterlimit="10"/>
<path d="M485.76 1051.61L579.97 949.16C588.96 939.38 588.96 923.53 579.97 913.76C570.98 903.98 556.41 903.98 547.42 913.76L453.21 1016.21C444.22 1025.99 444.22 1041.84 453.21 1051.61C462.2 1061.39 476.77 1061.39 485.76 1051.61Z" fill="#233E71"/>
<path d="M1288.92 441.62L1372.35 350.88C1381.34 341.1 1381.34 325.25 1372.35 315.48C1363.36 305.7 1348.79 305.7 1339.8 315.48L1256.37 406.22C1247.38 416 1247.38 431.85 1256.37 441.62C1265.36 451.4 1279.93 451.4 1288.92 441.62Z" stroke="#FFC700" stroke-width="2.83" stroke-miterlimit="10"/>
<path d="M-167.56 1317.98L217.37 899.359C226.33 889.609 227.01 873.629 218.21 863.709C209.25 853.599 194.45 853.489 185.36 863.379L105.27 950.479C100.78 955.369 93.4901 955.369 88.9901 950.479C84.5001 945.589 84.5001 937.669 88.9901 932.779L246.12 761.889C255.11 752.109 255.11 736.259 246.12 726.489C237.13 716.709 222.56 716.709 213.57 726.489L-101.46 1069.09C-110.45 1078.87 -110.45 1094.72 -101.46 1104.49C-92.4699 1114.27 -77.8999 1114.27 -68.9099 1104.49L-38.6199 1071.55C-34.1299 1066.66 -26.8399 1066.66 -22.3399 1071.55C-17.8499 1076.44 -17.8499 1084.36 -22.3399 1089.25L-199.57 1281.99C-208.53 1291.74 -209.21 1307.72 -200.41 1317.64C-191.45 1327.75 -176.65 1327.86 -167.56 1317.97V1317.98Z" stroke="#FFC700" stroke-width="2.83" stroke-miterlimit="10"/>
<path d="M251.44 502.47C242.45 512.25 242.45 528.1 251.44 537.87C260.43 547.65 275 547.65 283.99 537.87C292.98 528.09 292.98 512.24 283.99 502.47C275 492.69 260.43 492.69 251.44 502.47Z" stroke="#FFC700" stroke-width="2.83" stroke-miterlimit="10"/>
<path d="M1131.84 224.88C1140.83 215.1 1140.83 199.25 1131.84 189.48C1122.85 179.7 1108.28 179.7 1099.29 189.48C1090.3 199.26 1090.3 215.11 1099.29 224.88C1108.28 234.66 1122.85 234.66 1131.84 224.88Z" stroke="#FFC700" stroke-width="2.83" stroke-miterlimit="10"/>
<path d="M175.27 195.159L28.3802 354.899C19.3902 364.679 19.3902 380.529 28.3802 390.299C37.3702 400.079 51.9402 400.079 60.9302 390.299L207.82 230.559C216.81 220.779 216.81 204.929 207.82 195.159C198.83 185.379 184.26 185.379 175.27 195.159V195.159Z" stroke="#FFC700" stroke-width="2.83" stroke-miterlimit="10"/>
<path d="M637.11 962.529L490.22 1122.27C481.23 1132.05 481.23 1147.9 490.22 1157.67C499.21 1167.45 513.78 1167.45 522.77 1157.67L669.66 997.929C678.65 988.149 678.65 972.299 669.66 962.529C660.67 952.749 646.1 952.749 637.11 962.529V962.529Z" stroke="#FFC700" stroke-width="2.83" stroke-miterlimit="10"/>
<path d="M1404.41 682.48L1257.52 842.22C1248.53 852 1248.53 867.85 1257.52 877.62C1266.51 887.4 1281.08 887.4 1290.07 877.62L1436.96 717.88C1445.95 708.1 1445.95 692.25 1436.96 682.48C1427.97 672.7 1413.4 672.7 1404.41 682.48Z" stroke="#FFC700" stroke-width="2.83" stroke-miterlimit="10"/>
<path d="M1443.9 404.31C1434.91 414.09 1434.91 429.94 1443.9 439.71C1452.89 449.49 1467.46 449.49 1476.45 439.71C1485.44 429.93 1485.44 414.08 1476.45 404.31C1467.46 394.53 1452.89 394.53 1443.9 404.31Z" stroke="#FFC700" stroke-width="2.83" stroke-miterlimit="10"/>
<path d="M1262.69 1106.02L1543.33 825.369" stroke="white" stroke-miterlimit="10"/>
<path d="M-2.59082 203.4L278.049 -77.2402" stroke="white" stroke-miterlimit="10"/>
<path d="M150.239 856.779L328.819 678.199" stroke="white" stroke-miterlimit="10"/>
<path d="M-89.5605 1187.09L191.079 906.449" stroke="white" stroke-miterlimit="10"/>
<path d="M139.76 345.889L253.5 232.159" stroke="white" stroke-miterlimit="10"/>
<path d="M1258.85 381.87L1627.58 13.1396" stroke="white" stroke-miterlimit="10"/>
<path d="M1432.3 606.51L1899.71 139.1" stroke="white" stroke-miterlimit="10"/>
<path d="M712.029 1105.9L1034.35 783.59" stroke="white" stroke-miterlimit="10"/>
<path d="M324.399 209.4L646.719 -112.91" stroke="white" stroke-miterlimit="10"/>
<path d="M1038.73 114.049L1361.04 -208.271" stroke="white" stroke-miterlimit="10"/>
<path d="M587.029 1140.22L773.919 953.319" stroke="white" stroke-miterlimit="10"/>
<path d="M644.63 874.279L661.79 857.119" stroke="white" stroke-miterlimit="10"/>
<path d="M109.079 897.939L126.239 880.779" stroke="white" stroke-miterlimit="10"/>
<path d="M1394.43 644.38L1411.59 627.229" stroke="white" stroke-miterlimit="10"/>
</g>
</svg>
