<svg width="65" height="30" viewBox="0 0 65 30" fill="none" xmlns="http://www.w3.org/2000/svg">
<circle cx="15" cy="15" r="15" fill="#6BC7FA"/>
<mask id="mask0_231_17323" style="mask-type:alpha" maskUnits="userSpaceOnUse" x="0" y="0" width="30" height="30">
<circle cx="15" cy="15" r="15" fill="#D9D9D9"/>
</mask>
<g mask="url(#mask0_231_17323)">
<path d="M14.7549 15.5519L18.9125 30.8024L7.89764 29.7941L14.7549 15.5519Z" fill="#272727"/>
<path d="M14.8066 15.3812L28.122 4.83762L31.7841 15.8603L14.8066 15.3812Z" fill="#272727"/>
</g>
<path d="M52.8549 14.216C53.8469 14.584 54.6149 15.12 55.1589 15.824C55.7029 16.528 55.9749 17.376 55.9749 18.368C55.9749 19.84 55.3669 20.984 54.1509 21.8C52.9349 22.6 51.1749 23 48.8709 23H39.4149V6.2H48.3909C50.6309 6.2 52.3189 6.6 53.4549 7.4C54.6069 8.2 55.1829 9.264 55.1829 10.592C55.1829 11.376 54.9829 12.08 54.5829 12.704C54.1989 13.328 53.6229 13.832 52.8549 14.216ZM44.9829 10.16V12.656H47.6229C48.8549 12.656 49.4709 12.24 49.4709 11.408C49.4709 10.576 48.8549 10.16 47.6229 10.16H44.9829ZM48.3909 19.04C49.6389 19.04 50.2629 18.6 50.2629 17.72C50.2629 16.84 49.6389 16.4 48.3909 16.4H44.9829V19.04H48.3909ZM57.9774 6.2H63.6414V23H57.9774V6.2Z" fill="#272727"/>
</svg>
